<svg xmlns="http://www.w3.org/2000/svg" viewBox="0 0 200 200">
  <rect width="200" height="200" fill="#0d0d0d" rx="28"/>
  <path d="M 118 28 A 72 72 0 1 0 118 172 L 106 172 A 60 60 0 1 1 106 28 Z" fill="#1a1a1a"/>
  <path d="M 115 28 A 72 72 0 1 0 115 172 L 103 172 A 60 60 0 1 1 103 28 Z" fill="#222"/>
  <rect x="96" y="20" width="34" height="36" fill="#0d0d0d"/>
  <rect x="96" y="144" width="34" height="36" fill="#0d0d0d"/>
  <polygon points="128,18 104,92 116,92 90,182 114,104 102,104 130,18" fill="#e8f72a"/>
  <polygon points="128,18 122,18 98,92 104,92 130,18" fill="#fff" opacity="0.3"/>
  <g stroke="#e8f72a" stroke-width="1.5" stroke-linecap="round" opacity="0.7">
    <line x1="98" y1="72" x2="84" y2="64"/>
    <line x1="100" y1="80" x2="84" y2="80"/>
    <line x1="108" y1="124" x2="122" y2="116"/>
    <line x1="106" y1="132" x2="122" y2="132"/>
  </g>
</svg>
